<svg id="Layer_1" data-name="Layer 1" xmlns="http://www.w3.org/2000/svg" viewBox="0 0 311.55 560.03"><title>AppleWatch</title><g id="_2oh9cU.tif" data-name="2oh9cU.tif"><path d="M442.55,190.32c12.51,3.74,14,5.73,14,18.9q0.07,15.86,0,31.72c0,10.47-2.93,13.83-13.71,16v39.47c11.5,2.93,13.71,5.78,13.72,17.59q0,28.83,0,57.67c0,11.31-2.68,14.75-13.55,16.94-0.48,8.77-.25,17.67-1.59,26.32-3.07,19.84-14,34.46-31.3,44.62a28.05,28.05,0,0,0-7.79,7.22C384.75,490,382.1,517.11,382.8,545c0.41,16.3-6.81,23.83-23.06,23.84q-64.59,0-129.17,0c-15,0-22.65-8.14-22.2-23,0.85-28.09-1.84-55.38-19.57-78.85a19,19,0,0,0-6.33-5.41c-24.12-12.18-37.35-31.21-37.36-58.66q0-114.18,0-228.35c0-27.86,13.3-46.84,38.07-58.53a12.52,12.52,0,0,0,4.77-3.8c12.49-17.68,20-37.05,19.79-59-0.08-7.68.17-15.36,0.18-23,0-13.11,8.29-21.07,22.72-21.2,21-.2,41.9-0.09,62.86-0.09q32.58,0,65.16,0c16.82,0,24.06,7.56,24.13,24.32,0,10.94.53,21.9,1.32,32.81,1.33,18.29,10.35,33.52,20.26,48.27,1.08,1.61,3.17,2.67,5,3.65,21.27,11.53,32.26,29.44,33.2,53.52C442.76,177.79,442.55,184.12,442.55,190.32Zm-23.68,98q0-56.51,0-113a47.19,47.19,0,0,0-1-11.41c-4.19-16.52-18.79-27.36-36.81-27.38q-86.21-.08-172.41,0c-22.56,0-37.75,15-37.77,37.51q-0.1,113.6,0,227.19a53,53,0,0,0,1.42,13.12c4.15,16,18.3,26.79,35.36,26.83,57.28,0.12,114.56-.12,171.84.18,20.34,0.11,40-15,39.6-39.44C418.39,364.09,418.88,326.21,418.88,288.34Z" transform="translate(-145.07 -8.84)"/></g></svg>